<svg width="23" height="29" viewBox="0 0 23 29" fill="none" xmlns="http://www.w3.org/2000/svg">
<path d="M2.5 28.363H20C21.3787 28.363 22.5 27.0909 22.5 25.5267V9.92704C22.5 9.55093 22.3683 9.19022 22.1339 8.92426C21.8995 8.65831 21.5815 8.50889 21.25 8.5089H17.5V7.09075C17.5 3.18091 14.6962 0 11.25 0C7.80375 0 5 3.18091 5 7.09075V8.5089H1.25C0.918479 8.50889 0.600537 8.65831 0.366116 8.92426C0.131696 9.19022 0 9.55093 0 9.92704V25.5267C0 27.0909 1.12125 28.363 2.5 28.363ZM7.5 7.09075C7.5 4.74513 9.1825 2.8363 11.25 2.8363C13.3175 2.8363 15 4.74513 15 7.09075V8.5089H7.5V7.09075ZM2.5 11.3452H5V14.1815H7.5V11.3452H15V14.1815H17.5V11.3452H20L20.0025 25.5267H2.5V11.3452Z" fill="#4B4F54"/>
</svg>
