<svg width="80" height="80" viewBox="0 0 80 80" fill="none" xmlns="http://www.w3.org/2000/svg">
<g clip-path="url(#clip0_1_123)">
<path d="M43.1841 37.8919L47.8934 35.1409L43.1841 37.8919Z" fill="#FF4100"/>
<path d="M40.6217 15.7056L40.2301 15.0417L39.0759 15.7158C39.4022 15.7021 39.7286 15.6919 40.0583 15.6919C40.2472 15.6919 40.4327 15.7021 40.6217 15.7056Z" fill="#13203A"/>
<path d="M79.7939 42.0493L74.1194 38.939C74.061 36.903 73.8205 34.915 73.4186 32.9852L78.6054 28.9305C77.8738 26.3779 76.8914 23.9348 75.6891 21.6183L69.2967 22.4943C67.8437 20.082 66.0988 17.8681 64.1133 15.8938L66.2671 9.71421C64.3435 8.0581 62.2619 6.57993 60.0464 5.31048L55.1413 9.4918C52.5101 8.19497 49.69 7.23005 46.7291 6.64494L45.1936 0.325062C43.5105 0.109494 41.7999 0 40.0584 0C39.2787 0 38.5058 0.0239519 37.7364 0.068434L35.8746 6.2446C32.8003 6.62099 29.8532 7.40456 27.088 8.53714L22.3993 4.07525C20.1597 5.17361 18.0335 6.47044 16.055 7.94861L17.8514 14.1898C16.6458 15.2197 15.5191 16.3386 14.4714 17.526L18.298 18.1419C18.6415 18.1966 18.9369 18.4019 19.1121 18.703L21.9906 23.7158C25.3602 19.9964 29.8635 17.3206 34.9575 16.2325L40.1168 13.2215C40.2576 13.1393 40.4191 13.1017 40.5771 13.112C40.632 13.112 40.6836 13.1222 40.7351 13.1359C40.7866 13.1496 40.8381 13.1667 40.8862 13.1907C40.9343 13.2146 40.979 13.242 41.0236 13.2728C41.1095 13.3378 41.1816 13.4165 41.2366 13.5123L42.5968 15.8219C54.6295 17.0674 64.0756 27.0759 64.3916 39.3119C64.3778 39.3119 64.3607 39.3119 64.3469 39.3119C64.4122 41.3786 64.1821 43.3906 63.6737 45.3478L63.8008 45.2725C64.3435 44.9475 65.0477 45.122 65.374 45.6626C65.7003 46.2032 65.5251 46.9047 64.9824 47.2297L62.5058 48.7113C61.5543 50.8841 60.2525 52.9713 58.6209 54.9594C56.3572 57.7138 53.2623 60.3691 50.164 61.9773C49.7862 62.1723 49.4118 62.3502 49.0374 62.5145L49.0167 62.4837C48.45 62.7095 47.8695 62.9045 47.2821 63.0893C45.0013 63.7976 42.5796 64.1911 40.0653 64.1911C38.6466 64.1911 37.2555 64.0611 35.9021 63.8284C34.8854 63.6539 33.8892 63.4212 32.9171 63.1235C22.9729 60.0748 15.7218 50.8362 15.7218 39.9449C15.7218 34.59 17.477 29.6388 20.438 25.6217L17.3912 20.3181L12.8021 19.579C12.4895 19.993 12.1803 20.4139 11.8849 20.845L5.54401 19.62C4.26277 21.7757 3.17733 24.0614 2.31516 26.4532L7.24431 30.7611C6.48862 33.4437 6.05582 36.2632 5.99055 39.1716L0 41.5497C0.106483 44.2015 0.470588 46.7883 1.0717 49.2828L7.58437 50.2545C8.40189 52.8071 9.51138 55.2297 10.8785 57.4812L7.12752 62.7198C8.68012 64.9405 10.4491 67.0003 12.4139 68.8617L18.4285 66.1688C20.3349 67.7326 22.4165 69.091 24.6389 70.2167L24.3229 76.6803C26.8579 77.7581 29.5234 78.5828 32.2954 79.1234L35.8884 73.6316C37.2555 73.7992 38.6466 73.8848 40.0584 73.8848C41.0374 73.8848 42.0026 73.8403 42.9609 73.7616L46.2241 79.4074C49.0511 78.9729 51.7784 78.2406 54.3753 77.2517L54.0627 70.4254C56.6664 69.2313 59.143 67.6983 61.4169 65.8301L67.2941 68.6496C68.5238 67.4896 69.6986 66.2373 70.7978 64.896C71.2924 64.2938 71.763 63.6813 72.2164 63.0619L68.596 57.7138C70.2516 55.1065 71.5088 52.3383 72.3813 49.4881L78.8184 48.6976C79.2684 48.7592 79.8832 45.471 79.9828 43.4967C79.9828 43.4864 79.9897 43.4761 79.9897 43.4693H79.9863C80.0275 42.6583 79.9794 42.0732 79.7939 42.0493Z" fill="#13203A"/>
<path d="M20.4311 25.6149L20.9017 26.4327L24.4156 32.5541C24.3676 32.6225 24.3229 32.6944 24.2886 32.7731C24.2542 32.8518 24.2302 32.9339 24.213 33.0229L22.7428 41.1768C22.7325 41.2418 22.7257 41.3102 22.7257 41.3787C22.7257 41.5806 22.7772 41.7756 22.8802 41.9535L32.4088 58.3469C32.3332 58.7883 32.292 59.2365 32.2851 59.695C32.2817 59.9243 32.2851 60.1536 32.3023 60.3828C32.3195 60.6121 32.3401 60.8447 32.371 61.0774C32.371 61.0774 32.371 61.0808 32.371 61.0843C32.3916 61.2245 32.4156 61.3648 32.4397 61.5051C32.4603 61.6078 32.4809 61.707 32.505 61.8062C32.5118 61.8405 32.5187 61.8747 32.529 61.9089C32.5599 62.0355 32.5908 62.1621 32.6286 62.2853C32.6286 62.2887 32.6286 62.2921 32.6286 62.299C32.6664 62.429 32.7042 62.559 32.7488 62.6856C32.7969 62.8327 32.8485 62.9765 32.9034 63.1167C33.8721 63.4144 34.8716 63.6471 35.8884 63.8216C35.6411 63.4863 35.4212 63.1236 35.2392 62.7404C35.2083 62.6753 35.1808 62.6069 35.1533 62.5419C35.1018 62.4256 35.0503 62.3058 35.0056 62.186C34.9781 62.1108 34.9506 62.0321 34.9266 61.9568C34.8854 61.8302 34.8476 61.7036 34.8132 61.5736C34.7961 61.5051 34.7755 61.4401 34.7617 61.3717C34.7136 61.1732 34.6758 60.9713 34.6449 60.766C34.6037 60.4649 34.5831 60.1638 34.5797 59.8661C34.5728 58.3811 35.0606 56.9782 35.9021 55.8388C35.988 55.7259 36.0739 55.613 36.1666 55.5035C36.4414 55.1784 36.7437 54.8773 37.0769 54.607C37.6643 54.1279 38.3375 53.7447 39.076 53.4847C39.2203 53.4333 39.368 53.3957 39.5157 53.3546C39.8111 53.2725 40.1099 53.2007 40.4225 53.1562C40.6114 53.1288 40.7969 53.1151 40.9824 53.1048C41.1542 53.0946 41.3259 53.0912 41.4977 53.0946C41.6694 53.098 41.8377 53.1083 42.006 53.1254C42.3427 53.1562 42.6724 53.2143 42.9953 53.2965C43.0606 53.3136 43.1258 53.3307 43.1877 53.3478C43.3491 53.3923 43.5105 53.447 43.6685 53.5052C44.0258 53.6352 44.3658 53.796 44.6922 53.9842C44.8021 54.0458 44.9086 54.1074 45.015 54.1758C45.4582 54.4598 45.8669 54.7952 46.2345 55.175C46.3581 55.3016 46.4749 55.4316 46.5848 55.5685C46.705 55.7156 46.8184 55.8662 46.9283 56.0236C47.2546 56.4923 47.5191 57.0056 47.7184 57.5565C47.8764 57.9876 47.9897 58.4427 48.055 58.9183C48.0825 59.1236 48.0996 59.3255 48.1099 59.5274C48.1099 59.5684 48.1134 59.6129 48.1168 59.654C48.1202 59.8285 48.1168 60.003 48.1099 60.1741C48.1065 60.2528 48.0996 60.3281 48.0928 60.4068C48.0825 60.5231 48.0687 60.636 48.055 60.7489C48.0344 60.8926 48.0103 61.0363 47.9828 61.1766C47.976 61.2109 47.9691 61.2485 47.9588 61.2827C47.9073 61.5085 47.8489 61.7275 47.7767 61.9465C47.6462 62.3469 47.4745 62.7301 47.2752 63.0928C47.8626 62.9114 48.4431 62.713 49.0099 62.4871L49.0305 62.5179C49.4049 62.3537 49.7828 62.1758 50.1572 61.9807C50.1846 61.8712 50.2053 61.7617 50.2293 61.6523C50.2327 61.6351 50.2327 61.618 50.2362 61.6009C50.2774 61.4025 50.3083 61.2006 50.3358 60.9953C50.3427 60.9474 50.3461 60.8995 50.353 60.8516C50.377 60.636 50.3976 60.4204 50.4045 60.2015C50.4045 60.1741 50.4045 60.1467 50.4045 60.1159C50.4114 59.8867 50.4114 59.6574 50.3976 59.4247C50.3976 59.3905 50.3942 59.3529 50.3907 59.3187C50.377 59.0826 50.3564 58.843 50.322 58.6069C50.2533 58.1142 50.14 57.6386 49.9992 57.1767C49.9133 56.8995 49.8205 56.6292 49.7072 56.3657L62.4886 48.7182L64.9652 47.2366C65.508 46.9116 65.6831 46.2101 65.3568 45.6695C65.0305 45.1289 64.3263 44.9544 63.7836 45.2794L63.6565 45.3547L56.1718 49.8337L48.5599 54.388C48.5084 54.3195 48.4534 54.258 48.3985 54.1895C48.1305 53.861 47.8454 53.5497 47.5397 53.2588C47.4161 53.1425 47.289 53.033 47.1619 52.9235L61.5097 44.5472C61.5337 44.5335 61.5543 44.5164 61.5749 44.4993C61.7261 44.3898 61.8394 44.2324 61.8875 44.0476C61.9287 43.8902 61.9219 43.726 61.8703 43.5754C61.8532 43.5241 61.8291 43.4762 61.8016 43.4283L51.2873 25.5533C51.2598 25.5054 51.2254 25.4609 51.1911 25.4199C51.1533 25.3788 51.1155 25.3446 51.0709 25.3104C50.985 25.2454 50.8888 25.2009 50.7892 25.1735C50.7377 25.1598 50.6861 25.153 50.6346 25.1496C50.4766 25.1393 50.3152 25.1735 50.1675 25.259L48.6561 26.1418L42.5831 15.8186L41.2229 13.5089C41.1679 13.4165 41.0958 13.3344 41.0099 13.2694C40.9687 13.2386 40.9206 13.2078 40.8725 13.1873C40.8244 13.1668 40.7729 13.1462 40.7214 13.1325C40.6698 13.1189 40.6149 13.112 40.5634 13.1086C40.4019 13.0983 40.2439 13.136 40.1031 13.2181L34.9438 16.2292L26.4594 21.1838C26.4114 21.2112 26.3701 21.242 26.3289 21.2796C26.2499 21.3515 26.1846 21.437 26.1366 21.5328C26.1125 21.5807 26.0953 21.632 26.0816 21.6834C26.0679 21.7347 26.061 21.7894 26.0576 21.8408C26.0473 22.0016 26.085 22.159 26.1675 22.2993L33.5973 34.9322L31.842 35.9587C31.5981 36.1024 31.4539 36.3488 31.4401 36.6122C31.4298 36.7696 31.4642 36.9305 31.55 37.0776L36.4517 45.406L39.7184 50.9594C39.0932 51.0724 38.4921 51.2503 37.9219 51.4795L21.9837 23.7159L19.1052 18.7031C18.9335 18.402 18.6346 18.1967 18.2911 18.1419L14.4646 17.526L8.27138 16.5269C7.92102 16.4687 7.58096 16.5782 7.33021 16.7972C7.24777 16.869 7.17563 16.9546 7.1138 17.047C7.07258 17.1086 7.04167 17.177 7.01419 17.2488C6.98671 17.3207 6.9661 17.396 6.9558 17.4713C6.94549 17.5465 6.93862 17.6252 6.94206 17.7039C6.94206 17.7792 6.9558 17.8545 6.97297 17.9263C7.07945 18.3575 7.43669 18.7065 7.90384 18.7818L12.6441 19.5448L12.7952 19.5688L17.3843 20.3078L20.4311 25.6115V25.6149ZM33.3809 36.9544L38.6192 33.8954C38.1005 33.0947 37.6986 32.5233 37.6162 32.5507L35.0022 34.0768L28.0017 22.1795L29.2624 21.4438L31.7802 19.9725L33.8446 23.4832L36.9601 21.6628L38.5196 20.7527L36.4551 17.242L39.0795 15.7125L40.2336 15.0384L40.6252 15.7022L47.234 26.9357L37.6436 32.5336L44.1597 28.7321L45.0013 30.1726L50.3014 27.0794L59.988 43.5446L45.6746 51.9004C44.4277 51.2263 43.0193 50.8363 41.5423 50.8089L36.6509 42.4942L33.3912 36.951L33.3809 36.9544ZM25.9992 42.7576L25.0786 41.17L26.1022 35.4899L29.4307 41.2863L31.6497 45.1494L28.7677 47.5138L26.0026 42.7542L25.9992 42.7576ZM33.4049 55.5L31.3199 51.9141L29.9287 49.5223L31.076 48.5779L32.8004 47.1648L35.9262 52.6087C34.8854 53.3854 34.0266 54.3743 33.4049 55.5Z" fill="#FF4100"/>
<path d="M45.1764 59.0757C45.1352 58.8772 45.0837 58.6856 45.015 58.5043C44.9153 58.2271 44.7814 57.9671 44.6268 57.7275C44.4688 57.488 44.2867 57.2656 44.0841 57.0671C43.981 56.9645 43.8711 56.8687 43.7543 56.7797C43.1807 56.3349 42.4834 56.0475 41.738 55.9722C41.5869 55.9585 41.4357 55.9517 41.2846 55.9551C41.13 55.9551 40.9754 55.9688 40.8209 55.9927C40.759 55.9996 40.6972 56.0133 40.6388 56.027C40.6079 56.0338 40.577 56.0372 40.5461 56.0441C40.0514 56.1467 39.598 56.3417 39.1996 56.6086C38.9591 56.766 38.7393 56.9508 38.5435 57.1561C38.0454 57.6728 37.6951 58.3229 37.5405 59.038C37.4787 59.322 37.4512 59.6197 37.4581 59.9208C37.4581 60.0714 37.4718 60.2254 37.4958 60.3759C37.513 60.4957 37.5371 60.6155 37.5645 60.7318C37.5748 60.7694 37.5852 60.8036 37.592 60.8413C37.6126 60.92 37.6367 60.9987 37.6607 61.0774C37.6745 61.1184 37.6882 61.1595 37.7019 61.1971C37.7294 61.2724 37.7603 61.3443 37.7912 61.4161C37.8084 61.4503 37.8222 61.488 37.8393 61.5222C37.8874 61.6214 37.939 61.7172 37.9939 61.813C38.0145 61.8507 38.042 61.8849 38.0626 61.9225C38.1004 61.9807 38.1382 62.0389 38.176 62.0936C38.2103 62.1415 38.2447 62.186 38.279 62.2305C38.3099 62.2716 38.3443 62.3126 38.3786 62.3503C38.4198 62.3982 38.4611 62.4461 38.5057 62.494C38.5332 62.5213 38.5607 62.5487 38.5882 62.5795C38.7702 62.7609 38.966 62.9217 39.179 63.0654C39.1893 63.0722 39.203 63.0825 39.2133 63.0893C39.2889 63.1372 39.3645 63.1851 39.44 63.2262C39.4503 63.2331 39.4606 63.2365 39.4709 63.2433C39.811 63.4281 40.1785 63.565 40.5633 63.6471C40.8587 63.7087 41.1609 63.7326 41.4735 63.7224C41.4838 63.7224 41.4941 63.7224 41.5044 63.7224C41.5903 63.7189 41.6762 63.7087 41.7621 63.6984C41.8033 63.695 41.8411 63.695 41.8823 63.6881C43.483 63.4657 44.7195 62.3092 45.1146 60.8481C45.1489 60.7249 45.173 60.6018 45.1936 60.4752C45.2348 60.2254 45.252 59.9653 45.2417 59.7019C45.2382 59.5718 45.2245 59.4384 45.2073 59.3049C45.197 59.2262 45.1833 59.151 45.1661 59.0757H45.1764Z" fill="#FF4100"/>
<path d="M41.6145 38.8055L43.1843 37.8885L47.8936 35.1375L44.9945 30.1726L44.1529 28.7321L37.6368 32.5336L37.6128 32.5473C37.6952 32.5199 38.0971 33.0913 38.6158 33.892C39.7425 35.6302 41.4153 38.4736 41.5939 38.7747C41.6042 38.7919 41.6111 38.8021 41.6111 38.8021L41.6145 38.8055Z" fill="#13203A"/>
</g>
<defs>
<clipPath id="clip0_1_123">
<rect width="80" height="79.4074" fill="white"/>
</clipPath>
</defs>
</svg>
