<svg width="80" height="80" viewBox="0 0 80 80" fill="none" xmlns="http://www.w3.org/2000/svg">
<path d="M68.6323 28.2807L65.5529 30.6353V18.4983L76.7834 22.021L73.1607 24.5668C73.1607 24.5668 79.1736 36.8179 74.6489 51.3377C69.5425 67.7237 53.6486 78.4414 36.5518 76.9391C29.2241 76.2951 21.388 73.3853 14.2893 66.5016L18.4553 62.154C18.4553 62.154 32.2517 76.9465 51.5267 68.8465C57.0408 66.529 61.8664 62.7906 65.3513 57.9295C75.6969 43.4979 68.6316 28.2799 68.6316 28.2799L68.6323 28.2807Z" fill="#13203A"/>
<path d="M55.047 32.4467L58.9262 28.818C59.5732 28.2132 60.6286 28.6853 60.6086 29.571L60.5723 31.1682C60.5404 32.5586 61.3764 33.823 62.6682 34.3381C64.192 34.9458 65.1918 36.4214 65.1918 38.0616V41.3397C65.1918 43.1473 63.9815 44.7319 62.2376 45.2077C61.5869 45.3848 61.0548 45.8525 60.7939 46.4743L59.4865 49.5916C59.0892 50.5395 59.1811 51.6216 59.7326 52.4887C60.7086 54.0221 60.5308 56.0203 59.299 57.3573L57.0911 59.7542C55.8808 61.0682 53.9472 61.4232 52.3493 60.6243L52.0706 60.4849C51.2005 60.0499 50.1844 60.0173 49.2883 60.3945L46.5476 61.5485C45.9169 61.8138 45.4618 62.3786 45.3358 63.0508C44.98 64.9474 43.3243 66.3214 41.3951 66.3214H38.2779C36.3805 66.3214 34.7426 64.9911 34.3535 63.1338L34.3491 63.1108C34.1497 62.1592 33.5442 61.3417 32.6919 60.874L29.8718 59.3258C29.1684 58.9396 28.3495 58.8203 27.5653 58.9893L23.5535 59.0612C22.931 59.0723 22.6019 58.3282 23.0295 57.8754L27.8759 52.7363C27.8759 52.7363 38.8849 60.6213 48.499 54.9538C50.2844 53.9013 51.8008 52.4539 53.0267 50.7826C59.9638 41.33 55.047 32.4481 55.047 32.4481V32.4467Z" fill="#13203A"/>
<path d="M11.3381 51.7764L14.4176 49.4218V61.5581L3.18701 58.0354L6.80973 55.4896C6.80973 55.4896 0.796817 43.2384 5.32151 28.7186C10.428 12.3327 26.3219 1.61421 43.4194 3.11725C50.7471 3.76131 58.5832 6.67104 65.6819 13.5548L61.5159 17.9024C61.5159 17.9024 47.7195 3.10984 28.4445 11.2098C22.9304 13.5274 18.1048 17.2657 14.6199 22.1269C4.27427 36.5585 11.3396 51.7764 11.3396 51.7764H11.3381Z" fill="#13203A"/>
<path d="M24.9241 47.6097L21.0449 51.2383C20.3979 51.8431 19.3425 51.371 19.3625 50.4853L19.3989 48.8881C19.4307 47.4977 18.5947 46.2334 17.3029 45.7183C15.7791 45.1105 14.7793 43.6349 14.7793 41.9947V38.7167C14.7793 36.909 15.9896 35.3244 17.7335 34.8486C18.3842 34.6715 18.9164 34.2038 19.1773 33.582L20.4846 30.4647C20.8819 29.5168 20.79 28.4347 20.2386 27.5676C19.2625 26.0342 19.4404 24.036 20.6721 22.699L22.88 20.3022C24.0903 18.9881 26.024 18.6331 27.6219 19.432L27.9005 19.5714C28.7706 20.0064 29.7868 20.039 30.6828 19.6618L33.4236 18.5078C34.0543 18.2425 34.5093 17.6778 34.6353 17.0055C34.9911 15.1089 36.6468 13.7349 38.576 13.7349H41.6933C43.5906 13.7349 45.2285 15.0652 45.6176 16.9225L45.6221 16.9455C45.8214 17.8971 46.427 18.7146 47.2793 19.1823L50.0993 20.7305C50.8027 21.1167 51.6216 21.236 52.4058 21.067L56.4176 20.9951C57.0402 20.984 57.3692 21.7281 56.9416 22.181L52.0952 27.3201C52.0952 27.3201 41.0863 19.435 31.4721 25.1026C29.6867 26.155 28.1703 27.6024 26.9445 29.2737C20.0073 38.7263 24.9241 47.6082 24.9241 47.6082V47.6097Z" fill="#13203A"/>
<path d="M47.918 45.2032H51.2976V48.1782C51.2976 48.1967 51.2828 48.2116 51.2642 48.2116H47.9506C47.9321 48.2116 47.9172 48.1967 47.9172 48.1782V45.2032H47.918Z" fill="#13203A"/>
<path d="M30.5775 48.2115H27.2638C27.2453 48.2115 27.2305 48.1967 27.2305 48.1782V45.2032H30.6101V48.1782C30.6101 48.1967 30.5953 48.2115 30.5768 48.2115H30.5775Z" fill="#13203A"/>
<path d="M49.2824 35.5468C49.2824 35.5468 47.4488 31.4653 46.9515 31.0525C46.392 30.5885 42.8478 30.1609 39.2636 30.1609C35.6794 30.1609 32.1353 30.5878 31.5757 31.0525C31.0784 31.4653 29.2456 35.5468 29.2456 35.5468C29.2456 35.5468 26.9058 37.5242 26.9058 39.4741V44.9897C26.9058 45.3796 27.2119 45.9643 27.9085 45.9643H50.6195C51.3161 45.9643 51.6222 45.3796 51.6222 44.9897V39.4741C51.6222 37.5242 49.2824 35.5468 49.2824 35.5468Z" fill="#FF4100"/>
<path d="M39.2643 34.5537C42.4676 34.5537 45.5092 34.7442 47.4006 34.9828C47.6148 35.0103 47.8268 34.9184 47.9535 34.7434C48.0803 34.5685 48.1025 34.3388 48.0106 34.1431C47.4192 32.8898 46.7936 31.6551 46.5743 31.4698C46.1207 31.0881 42.8293 30.6442 39.2643 30.6442C35.6994 30.6442 32.408 31.0881 31.9544 31.4698C31.7343 31.6551 31.1088 32.8898 30.5181 34.1431C30.4262 34.3388 30.4477 34.5685 30.5744 34.7434C30.7012 34.9184 30.9139 35.0095 31.1281 34.9828C33.0195 34.7442 36.0611 34.5537 39.2643 34.5537Z" fill="white"/>
<path d="M52.1691 33.6681C51.972 33.448 50.4734 33.4954 50.0947 33.5969C49.7159 33.6985 49.0637 35.0681 49.0637 35.0681C49.1986 35.3616 49.2816 35.5469 49.2816 35.5469C49.2816 35.5469 49.4009 35.6477 49.5847 35.8256C49.5847 35.8256 50.3956 35.7196 51.2494 35.3794C52.1758 35.0103 52.3455 33.866 52.1676 33.6681H52.1691Z" fill="#13203A"/>
<path d="M46.2869 40.1293L46.9094 38.5254C46.9806 38.3416 47.1392 38.2053 47.3311 38.1615C47.9863 38.0133 49.4864 37.7072 49.8829 37.9088C50.3765 38.1593 50.6485 39.34 50.6485 39.34C49.5242 39.6942 47.9507 39.961 46.2869 40.1293Z" fill="white"/>
<path d="M49.3661 43.9774C49.3661 44.4739 48.9637 44.8764 48.4671 44.8764C47.9706 44.8764 47.5681 44.4739 47.5681 43.9774C47.5681 43.4808 47.9706 43.0784 48.4671 43.0784C48.9637 43.0784 49.3661 43.4808 49.3661 43.9774Z" fill="#39404A"/>
<path d="M26.3587 33.6681C26.5559 33.448 28.0545 33.4954 28.4332 33.5969C28.8119 33.6985 29.4634 35.0681 29.4634 35.0681C29.3285 35.3616 29.2455 35.5469 29.2455 35.5469C29.2455 35.5469 29.1262 35.6477 28.9424 35.8256C28.9424 35.8256 28.1316 35.7196 27.2778 35.3794C26.3513 35.0103 26.1816 33.866 26.3595 33.6681H26.3587Z" fill="#13203A"/>
<path d="M32.2413 40.1293L31.6187 38.5254C31.5476 38.3416 31.389 38.2053 31.197 38.1615C30.5418 38.0133 29.0418 37.7072 28.6452 37.9088C28.1516 38.1593 27.8796 39.34 27.8796 39.34C29.004 39.6942 30.5774 39.961 32.2413 40.1293Z" fill="white"/>
<path d="M39.2644 43.4022H33.9348V44.405C33.9348 44.9623 34.1394 45.4633 34.9932 45.4633H43.5356C44.3902 45.4633 44.594 44.9616 44.594 44.405V43.4022H39.2644Z" fill="#13203A"/>
<path d="M29.1619 43.9774C29.1619 44.4739 29.5643 44.8764 30.0609 44.8764C30.5574 44.8764 30.9599 44.4739 30.9599 43.9774C30.9599 43.4808 30.5574 43.0784 30.0609 43.0784C29.5643 43.0784 29.1619 43.4808 29.1619 43.9774Z" fill="#13203A"/>
<path d="M45.4145 39.1502C45.3589 39.0487 45.2522 38.9865 45.1366 38.9865H33.3924C33.2767 38.9865 33.17 39.0494 33.1144 39.1502C33.0588 39.2518 33.0626 39.3755 33.1241 39.4734C33.5858 40.2019 34.6745 41.4893 36.5993 41.4893H39.2645C39.2645 41.4893 41.4464 41.4893 41.9296 41.4893C43.8544 41.4893 44.9431 40.2012 45.4049 39.4734C45.4671 39.3755 45.4708 39.2518 45.4152 39.1502H45.4145Z" fill="#13203A"/>
</svg>
