<svg width="80" height="80" viewBox="0 0 80 80" fill="none" xmlns="http://www.w3.org/2000/svg">
<g clip-path="url(#clip0_1_77)">
<path d="M8.62274 64.1703C8.30735 64.7944 8.43485 65.5527 8.93141 66.0492L11.5149 68.6193L14.0916 71.1893C14.5882 71.6791 15.3397 71.7999 15.9638 71.4913L20.4932 69.2165C20.9898 68.9682 21.5736 68.9883 22.05 69.2702C22.6137 69.6057 23.1773 69.9345 23.7477 70.2499C24.2309 70.5183 24.5462 71.0148 24.5798 71.5651L24.9086 76.6313C24.9556 77.3292 25.4387 77.913 26.1097 78.0942L33.1354 79.9596C33.8064 80.1408 34.5244 79.8657 34.9069 79.2886L37.7051 75.0477C38.0138 74.5847 38.5372 74.3096 39.0941 74.323C39.7316 74.3364 40.3691 74.3364 41.0133 74.3096C41.5769 74.2894 42.107 74.5646 42.4157 75.0343L45.2273 79.2618C45.6165 79.8456 46.3278 80.114 47.0056 79.9328L54.0245 78.0338C54.7022 77.8526 55.1787 77.2554 55.2189 76.5575L55.5008 71.5114C55.5343 70.9477 55.8564 70.4377 56.353 70.176C56.9234 69.8741 57.487 69.5453 58.0373 69.1963C58.5137 68.8944 59.1176 68.8675 59.6209 69.1225L64.1369 71.3839C64.761 71.6993 65.5192 71.5718 66.0158 71.0752L71.1424 65.9284C71.639 65.4319 71.7598 64.6803 71.4444 64.0563L69.1562 59.5067C68.9079 59.0101 68.928 58.4263 69.2099 57.9499C69.4917 57.4735 69.8742 56.8092 70.1896 56.2455C70.458 55.7624 70.9546 55.447 71.5048 55.4134L76.5711 55.098C77.2689 55.0578 77.8594 54.5746 78.0406 53.8969L79.9262 46.8712C80.1074 46.1935 79.8323 45.4822 79.2485 45.093L75.0009 42.3015C74.5311 41.9929 74.256 41.4695 74.2694 40.9125C74.2896 40.2683 74.2896 39.6308 74.2694 38.9934C74.2493 38.4364 74.5244 37.913 74.9874 37.6043L79.235 34.7659C79.8121 34.3767 80.0805 33.6654 79.8994 32.9944L78.0003 25.9687C77.8192 25.291 77.222 24.8145 76.5241 24.7743L71.4511 24.4857C70.8942 24.4522 70.3842 24.1368 70.1225 23.6469C69.8138 23.0766 69.4917 22.5129 69.1495 21.9627C68.8542 21.4862 68.8341 20.8957 69.0824 20.3992L71.337 15.8496C71.6457 15.2255 71.5249 14.4673 71.0284 13.9774L66.1701 9.14602C65.7004 8.68301 65.0025 8.54209 64.3919 8.80379L59.433 10.9041C58.9566 11.1054 58.413 11.0719 57.9702 10.8035C57.3931 10.4478 56.8026 10.119 56.2121 9.80362C55.7155 9.54192 55.3934 9.03194 55.3599 8.46828L55.0646 3.40872C55.0243 2.71085 54.5412 2.11364 53.8635 1.93246L46.8311 0.0535814C46.1533 -0.127596 45.4421 0.147525 45.0596 0.73132L42.2681 4.98564C41.9594 5.45536 41.4293 5.73048 40.8724 5.71706C40.2349 5.69693 39.5907 5.69693 38.9465 5.71706C38.3896 5.73719 37.8594 5.45536 37.5508 4.99235L34.7593 0.764871C34.3701 0.181077 33.6588 -0.0873346 32.9811 0.0938431L25.9554 1.99956C25.2844 2.18074 24.8012 2.77796 24.761 3.47583L24.4724 8.52196C24.4389 9.08562 24.1168 9.58889 23.6202 9.85731C23.0498 10.166 22.4929 10.4814 21.9494 10.8236C21.4729 11.1188 20.8757 11.1524 20.3724 10.8974L15.8363 8.63603C15.2122 8.32736 14.454 8.44815 13.9574 8.94471L11.4008 11.5282L8.83746 14.0982C8.3409 14.5948 8.22012 15.353 8.5355 15.9771L10.8237 20.4797C11.0787 20.9897 11.0519 21.5936 10.7499 22.0767C10.401 22.627 10.0789 23.1839 9.7769 23.7543C9.5152 24.2509 9.01193 24.5797 8.44827 24.6132L3.40213 24.9219C2.70427 24.9622 2.11376 25.452 1.93258 26.123L0.0537035 33.1621C-0.127474 33.8399 0.147647 34.5512 0.731442 34.9336L4.97234 37.7184C5.44206 38.0271 5.71718 38.5572 5.70376 39.1209C5.68363 39.7583 5.68363 40.3958 5.70376 41.0333C5.72389 41.597 5.44877 42.1271 4.97905 42.4357L0.744863 45.2272C0.161068 45.6097 -0.107343 46.3277 0.0738343 47.0054L1.97955 54.0445C2.16073 54.7156 2.75124 55.1987 3.44911 55.239L8.52879 55.5476C9.07903 55.5812 9.5756 55.8899 9.84401 56.373C10.1594 56.9367 10.4815 57.5003 10.8237 58.064C11.1122 58.5404 11.1324 59.1309 10.8841 59.6275L8.62274 64.1569V64.1703ZM23.6336 56.3864C14.6016 47.3946 14.5815 32.7528 23.6336 23.6738C32.6456 14.6015 47.2941 14.6015 56.306 23.6134C65.3649 32.6052 65.4387 47.2537 56.4268 56.3059C47.3746 65.3782 32.7328 65.3983 23.6336 56.3864V56.3864Z" fill="#13203A"/>
<path d="M28.6931 38.9666H24.3381C23.6201 38.9666 23.1706 39.745 23.5329 40.3624L32.4576 55.6954C32.6253 55.9839 32.9273 56.1584 33.2628 56.1584H36.6716C37.0004 56.1584 37.2957 55.9906 37.4702 55.7088L54.105 28.3845C54.4807 27.7672 54.0311 26.9753 53.3064 26.9753H49.5285C49.2132 26.9753 48.9246 27.1364 48.7502 27.3981L35.4973 47.133C35.1149 47.7101 34.2627 47.69 33.9137 47.0861L29.4983 39.4363C29.3306 39.1478 29.0286 38.9733 28.6931 38.9733V38.9666Z" fill="#FF4100"/>
</g>
<defs>
<clipPath id="clip0_1_77">
<rect width="80" height="80" fill="white"/>
</clipPath>
</defs>
</svg>
