<svg width="80" height="80" viewBox="0 0 80 80" fill="none" xmlns="http://www.w3.org/2000/svg">
<g clip-path="url(#clip0_1_84)">
<path d="M40.0035 0C17.9079 0 0 17.9079 0 40.0035C0 62.0991 17.9079 80.007 40.0035 80.007C62.0991 80.007 80.007 62.0991 80.007 40.0035C80.007 17.9079 62.0921 0 40.0035 0ZM40.0035 66.7567C25.224 66.7567 13.2503 54.776 13.2503 40.0035C13.2503 25.231 25.224 13.2433 40.0035 13.2433C54.783 13.2433 66.7567 25.224 66.7567 39.9965C66.7567 54.769 54.776 66.7497 40.0035 66.7497V66.7567Z" fill="#13203A"/>
<path d="M39.9825 55.3441C48.4666 55.3441 55.3442 48.4664 55.3442 39.9824C55.3442 31.4984 48.4666 24.6207 39.9825 24.6207C31.4985 24.6207 24.6208 31.4984 24.6208 39.9824C24.6208 48.4664 31.4985 55.3441 39.9825 55.3441Z" fill="#13203A"/>
<path d="M21.7063 20.0992L21.0154 20.8551L29.6202 28.7207L30.3112 27.9648L21.7063 20.0992Z" fill="#13203A"/>
<path d="M33.3756 14.127L32.3638 14.2854L34.1381 25.616L35.1499 25.4575L33.3756 14.127Z" fill="#13203A"/>
<path d="M46.5263 13.9408L44.1921 25.3628L45.1955 25.5678L47.5297 14.1459L46.5263 13.9408Z" fill="#13203A"/>
<path d="M57.9848 20.3085L49.1724 27.6482L49.8278 28.4351L58.6402 21.0955L57.9848 20.3085Z" fill="#13203A"/>
<path d="M29.6202 51.2774L21.0154 59.1429L21.7063 59.8988L30.3112 52.0333L29.6202 51.2774Z" fill="#13203A"/>
<path d="M34.1327 54.3861L32.3623 65.7173L33.3741 65.8754L35.1445 54.5442L34.1327 54.3861Z" fill="#13203A"/>
<path d="M45.1954 54.4354L44.1919 54.6399L46.5201 66.0631L47.5236 65.8586L45.1954 54.4354Z" fill="#13203A"/>
<path d="M49.8274 51.5662L49.1719 52.353L57.9831 59.6942L58.6386 58.9074L49.8274 51.5662Z" fill="#13203A"/>
<path d="M65.3277 32.7705L54.4883 37.0621L54.8653 38.0143L65.7047 33.7227L65.3277 32.7705Z" fill="#13203A"/>
<path d="M55.2979 42.4745L54.9973 43.4535L65.9607 46.82L66.2614 45.841L55.2979 42.4745Z" fill="#13203A"/>
<path d="M14.6695 32.7689L14.2925 33.7211L25.1319 38.0127L25.5089 37.0605L14.6695 32.7689Z" fill="#13203A"/>
<path d="M24.7008 42.4737L13.7368 45.8383L14.0373 46.8173L25.0013 43.4527L24.7008 42.4737Z" fill="#13203A"/>
<path d="M46.2183 45.4817C45.7694 46.2113 45.11 46.8145 44.2332 47.2775C43.3564 47.7404 42.3253 47.9999 41.1258 48.042V49.957H39.6177V48.021C37.9482 47.8807 36.6015 47.3827 35.5774 46.5199C34.5532 45.6641 34.0131 44.4927 33.95 43.0127H38.2499C38.3411 43.9596 38.804 44.5629 39.6177 44.8294V41.0977C38.3902 40.7821 37.4081 40.4734 36.6786 40.1788C35.9491 39.8772 35.3038 39.4002 34.7567 38.7408C34.2025 38.0815 33.929 37.1766 33.929 36.0262C33.929 34.5953 34.4621 33.4449 35.5212 32.5821C36.5804 31.7194 37.9482 31.2284 39.6177 31.1161V29.2012H41.1258V31.1161C42.7812 31.2424 44.0859 31.7194 45.0469 32.5541C46.0079 33.3888 46.541 34.5462 46.6532 36.0262H42.3323C42.2411 35.1775 41.8343 34.6234 41.1258 34.3708V38.0324C42.4305 38.3971 43.4406 38.7198 44.149 39.0004C44.8575 39.281 45.4888 39.7509 46.05 40.4033C46.6111 41.0556 46.8847 41.9465 46.8847 43.0828C46.8847 43.9456 46.6602 44.7452 46.2113 45.4817H46.2183ZM38.5655 36.8259C38.811 37.0924 39.1617 37.3309 39.6177 37.5344V34.2516C39.1758 34.3287 38.8321 34.4971 38.5795 34.7566C38.327 35.0162 38.2008 35.3739 38.2008 35.8298C38.2008 36.2227 38.32 36.5523 38.5655 36.8189V36.8259ZM42.2481 44.3314C42.5217 44.0298 42.662 43.665 42.662 43.2231C42.662 42.8163 42.5287 42.4796 42.2692 42.22C42.0096 41.9605 41.6308 41.736 41.1258 41.5466V44.8996C41.5958 44.8224 41.9745 44.633 42.2481 44.3314Z" fill="#FF4100"/>
</g>
<defs>
<clipPath id="clip0_1_84">
<rect width="80" height="80" fill="white"/>
</clipPath>
</defs>
</svg>
